# xmcd
#
# Track frame offsets: 
#        150
#        12833
#        24099
#        37813
#        52513
#        65906
#        80947
#        96729
#        113850
#        131899
#        144481
#        157513
#        180332
#        194751
#        207874
#        234050
#        255278
#        271378
#        289582
#        294015
#
# Disc length: 4247 seconds
#
# Revision: 0
# Processed by: cddbd v1.4PL0 Copyright (c) Steve Scherf et al.
# Submitted via: ExactAudioCopy v0.90b4
#
DISCID=0a109514
DTITLE=Lightnin' Hopkins - Rainy Day In Houston
DYEAR=1900
DGENRE=
TTITLE0=Late in the Evening
TTITLE1=Lightnin's Jump
TTITLE2=War Is Starting Again
TTITLE3=Good as Old Time Religion
TTITLE4=Got Me a Louisiana Woman
TTITLE5=The World's in a Tangle
TTITLE6=Pine Gum Boogie
TTITLE7=Vietnam War
TTITLE8=You Just Gotta Miss Me
TTITLE9=Wake up the Dead
TTITLE10=I Went to Louisiana
TTITLE11=Rainy Day in Houston
TTITLE12=Go Ahead
TTITLE13=I Feel Like Balling the Jack
TTITLE14=Cryin' for Bread
TTITLE15=A Man Like Me Is Hard to Find
TTITLE16=Mojo Hand
TTITLE17=I Wonder Where She Can Be Tonight
TTITLE18=Old Man
TTITLE19=Born in the Bottoms
EXTD=
EXTT0=
EXTT1=
EXTT2=
EXTT3=
EXTT4=
EXTT5=
EXTT6=
EXTT7=
EXTT8=
EXTT9=
EXTT10=
EXTT11=
EXTT12=
EXTT13=
EXTT14=
EXTT15=
EXTT16=
EXTT17=
EXTT18=
EXTT19=
PLAYORDER=
